<svg width="144" height="133" viewBox="0 0 144 133" fill="none" xmlns="http://www.w3.org/2000/svg">
<ellipse cx="71.8115" cy="66.5" rx="71.8115" ry="66.5" fill="#7DBDAB"/>
<ellipse cx="72.8736" cy="64.375" rx="64.8003" ry="60.976" fill="#2E1129"/>
<path d="M26 93L37 89.5C59.1667 90.6667 104.8 93 110 93C115.2 93 119.5 100.333 121 104C117.667 110.167 104.1 123 76.5 125C48.9 127 28.3333 109.167 21.5 100L26 93Z" fill="#C7E40C"/>
<path d="M32 75.9998C32 70.7998 41.6667 71.1665 46.5 71.9998L95.5 75.9998C99.3333 73.1666 108.4 70 114 80C121 92.5 93.5 105 68.5 107.5C43.5 110 32 82.4998 32 75.9998Z" fill="#5F6D05"/>
<ellipse cx="73.1078" cy="64.2736" rx="27.3335" ry="30" transform="rotate(9.95501 73.1078 64.2736)" fill="#F3F0F0"/>
<path d="M86 91.5C90.5 87 76.0026 72 71.5026 72C66.0026 72 50.0001 81 56.0001 90C62.0001 99 81.5 96 86 91.5Z" fill="#D9D9D9"/>
<path d="M74 18.9998C67.2 18.5998 61.8333 25.8331 60 29.4998V36L78.5 39.5L90.5 31.5C88.1667 28.1667 80.8 19.3998 74 18.9998Z" fill="#5F6D05"/>
<path d="M98.4998 51.4998H48.9998C47.1664 46.3332 44.5998 34.4998 48.9998 28.4999C54.4998 20.9999 65.9998 35.9998 75.4998 35.9998C84.9998 35.9998 89.5 24.5 101 33C110.2 39.8 106.166 49.1665 98.4998 51.4998Z" fill="#C7E40C"/>
<circle cx="75" cy="18" r="4" fill="#7DBDAB"/>
</svg>
