<svg width="144" height="133" viewBox="0 0 144 133" fill="none" xmlns="http://www.w3.org/2000/svg">
<ellipse cx="71.8115" cy="66.5" rx="71.8115" ry="66.5" fill="#7DBDAB"/>
<ellipse cx="72.8736" cy="64.375" rx="64.8003" ry="60.976" fill="#2E1129"/>
<path d="M43.4026 34.4187L26.1934 59.064L48.0767 45.0417L66.7732 48.2286L57.0001 83.7094L35.1167 96.6695L113.727 90.7206L101.192 80.9474L93.7557 42.2797L70.5975 24.6455L43.4026 34.4187Z" fill="#5F6D05"/>
<path d="M26.1932 50.9907L28.3179 56.7271L34.4792 59.7016L29.5926 60.5514L30.5641 66.5674L26.1932 63.3134L19.1211 66.5674L21.9441 61.4291L19.1211 58.2535L23.6438 56.7271L26.1932 50.9907Z" fill="#CAE60B"/>
<path d="M71.9451 31.8687L70.9458 34.5289L68.0478 35.9083L70.3462 36.3024L69.8893 39.0923L71.9451 37.5833L75.2715 39.0923L73.9437 36.7095L75.2715 35.2368L73.1443 34.5289L71.9451 31.8687Z" fill="#CAE60B"/>
<path d="M53.1488 38.7774L50.3327 38.3966L48.3417 35.8792L48.4701 38.2076L45.6486 38.3844L47.5781 40.0519L46.8489 43.631L48.8756 41.8053L50.6073 42.7712L50.823 40.5397L53.1488 38.7774Z" fill="#CAE60B"/>
<path d="M75.3445 53.5396L74.3452 56.1998L71.4473 57.5792L73.7456 57.9733L73.2887 60.7632L75.3445 59.2542L78.6709 60.7632L77.3431 58.3804L78.6709 56.9077L76.5437 56.1998L75.3445 53.5396Z" fill="#CAE60B"/>
<path d="M88.012 73.1345L90.7043 74.044L92.1802 76.8941L92.4969 74.5837L95.3006 74.9468L93.7234 72.9428L95.12 69.5676L92.783 70.9746L91.2666 69.697L90.6305 71.8468L88.012 73.1345Z" fill="#CAE60B"/>
<path d="M67.5167 87.5309L68.5406 84.88L71.4513 83.5276L69.1566 83.1122L69.6394 80.3266L67.5697 81.8165L64.2575 80.2767L65.5631 82.6717L64.2217 84.132L66.3423 84.8596L67.5167 87.5309Z" fill="#CAE60B"/>
</svg>
