<svg width="278" height="40" viewBox="0 0 278 40" fill="none" xmlns="http://www.w3.org/2000/svg">
<path d="M1 20.7651C5.25043 12.4461 16.8559 -2.96449 29.2746 1.94509C44.7979 8.08206 30.9378 34.2663 54.2228 33.4481C77.5077 32.6298 66.974 11.7641 88.0414 14.2189C109.109 16.6737 95.2486 38.7668 113.544 38.3576C131.839 37.9485 124.033 5.89989 146.808 1.94509C165.658 -1.32813 150.689 33.4481 173.974 33.4481C197.259 33.4481 187.834 7.67259 202.803 14.2189C217.772 20.7651 201.694 33.0389 218.881 38.3576C236.067 43.6763 227.215 14.2189 245.51 14.2189C263.805 14.2189 259.57 26.2778 277 20.7651" stroke="#C461B2"/>
</svg>
