<svg width="144" height="133" viewBox="0 0 144 133" fill="none" xmlns="http://www.w3.org/2000/svg">
<ellipse cx="71.8115" cy="66.5" rx="71.8115" ry="66.5" fill="#7DBDAB"/>
<ellipse cx="72.8736" cy="64.375" rx="64.8003" ry="60.976" fill="#2E1129"/>
<path d="M93.0463 94.3897L36.75 26.4485L37.8759 24.75L105.994 80.8015L100.365 87.0294L112.75 98.9191L108.246 101.75L96.987 89.8603L93.0463 94.3897Z" fill="#5F6D05"/>
<path d="M43.75 35.3056V29.75L47.75 32.5278V39.75L43.75 35.3056Z" fill="#CAE60B"/>
<path d="M51.75 44.5278V36.75L56.75 40.25V50.75L51.75 44.5278Z" fill="#CAE60B"/>
<path d="M61.75 56.5565L62.3056 44.75L66.75 48.2339L66.1944 62.75L61.75 56.5565Z" fill="#CAE60B"/>
<path d="M73.75 70.5199L74.3056 54.75L78.75 58.2544L78.1944 76.75L73.75 70.5199Z" fill="#CAE60B"/>
<path d="M84.75 83.587L85.75 63.75L89.75 67.2167L88.75 89.75L84.75 83.587Z" fill="#CAE60B"/>
<path d="M94.75 91.75L95.95 71.75L100.75 75.2451L98.95 88.0607L94.75 91.75Z" fill="#CAE60B"/>
<path d="M92.5211 23.4491L98.75 21.75V27.9801L59.1114 83.4845L51.75 85.75V77.2544L92.5211 23.4491Z" fill="#F3F0F0"/>
<path d="M64.75 88.5278L42.7065 70.75L39.8804 74.0833L47.7935 86.3056L38.75 97.9722L42.7065 100.75L53.4457 88.5278L61.3587 91.8611L64.75 88.5278Z" fill="#5F6D05"/>
<path d="M54.75 80.3372L97.75 21.75V27.4381L58.7105 83.75L54.75 80.3372Z" fill="#D9D9D9"/>
<circle cx="54.75" cy="81.75" r="3" fill="#7DBDAB"/>
</svg>
