<svg width="144" height="133" viewBox="0 0 144 133" fill="none" xmlns="http://www.w3.org/2000/svg">
<ellipse cx="71.8115" cy="66.5" rx="71.8115" ry="66.5" fill="#7DBDAB"/>
<ellipse cx="72.8736" cy="64.375" rx="64.8003" ry="60.976" fill="#2E1129"/>
<path d="M62.0094 80.2348L58.3448 121.327C58.3448 121.327 62.0098 124.349 69.9499 124.954C77.8899 125.558 83.9977 124.954 83.9977 124.954L82.1654 78.4223C88.4767 66.1348 100.733 41.5598 99.2671 41.5598C97.8012 41.5598 88.4767 55.2574 83.9977 62.1061C87.6623 50.6244 94.2587 27.1774 91.327 25.2434C88.3953 23.3094 80.333 43.3726 76.6684 53.6459C76.872 43.1713 76.4241 22.2222 73.0037 22.2222C69.5834 22.2222 66.6924 39.5453 65.6744 48.2069C63.2312 39.5452 57.1233 22.8262 52.2374 25.2434C47.3514 27.6606 54.2732 48.8111 58.3448 59.0843C51.2191 53.847 36.479 44.9436 34.5246 51.2283C32.5701 57.5131 52.0334 73.1846 62.0094 80.2348Z" fill="#FFC7B1"/>
<path d="M95.1777 44.5818L90.5268 51.1725C90.5268 51.1725 90.8658 52.0504 92.181 52.9461C93.4962 53.8419 94.6124 54.3499 94.6124 54.3499L98.8435 46.289C101.137 44.8395 105.66 41.9037 105.407 41.7572C105.153 41.6107 102.2 42.9979 100.755 43.7098C102.512 42.1322 105.946 38.8217 105.627 38.2013C105.309 37.581 101.952 40.172 100.314 41.5451C101.373 39.7921 103.343 36.2006 102.751 35.8588C102.159 35.5171 99.9655 38.161 98.9426 39.5257C99.3664 37.8151 99.9434 34.3742 98.8615 34.2952C97.7796 34.2162 96.9102 38.4886 96.6108 40.6348C95.8894 39.036 94.2084 36.0557 93.2558 36.9244C92.3033 37.7931 94.1402 42.3913 95.1777 44.5818Z" fill="#FFC7B1"/>
<path d="M86.7688 53.1938L78.2688 48.6938L77.5 51.0006L86 55.5006L86.7688 53.1938Z" fill="#F3F0F0"/>
<circle cx="82" cy="52" r="2" fill="#7DBDAB"/>
<path d="M102.482 42.3036L101.306 40.4279L100.887 40.7993L102.064 42.6751L102.482 42.3036Z" fill="#F3F0F0"/>
<circle cx="101.67" cy="41.5162" r="0.460476" transform="rotate(30 101.67 41.5162)" fill="#7DBDAB"/>
</svg>
