<svg width="144" height="133" viewBox="0 0 144 133" fill="none" xmlns="http://www.w3.org/2000/svg">
<ellipse cx="71.8115" cy="66.5" rx="71.8115" ry="66.5" fill="#7DBDAB"/>
<ellipse cx="72.8736" cy="64.375" rx="64.8003" ry="60.976" fill="#2E1129"/>
<path d="M74.1829 37.0332L61.7802 40.5606C68.8674 75.3646 45.0464 89.5528 32.25 92.2963C45.007 96.9996 57.2522 90.3366 61.7802 86.4173C64.6151 91.1205 62.9614 102.095 61.7802 106.994C72.6473 107.935 79.4983 91.7084 81.2701 86.4173C94.0272 94.8831 112.375 91.9044 120.25 86.4173C89.5386 85.9469 76.7422 53.2986 74.1829 37.0332Z" fill="#CAE60B"/>
<path d="M59.25 41.0332L62.213 23.0332L75.25 27.2332V41.0332H59.25Z" fill="#5F6D05"/>
<ellipse cx="63.3563" cy="76.9598" rx="4.81449" ry="6.41932" transform="rotate(29.6066 63.3563 76.9598)" fill="#7DBDAB"/>
<ellipse cx="62.9783" cy="76.7451" rx="3.64743" ry="5.44286" transform="rotate(29.6066 62.9783 76.7451)" fill="#F3F0F0"/>
<path d="M60.8145 75.4194C60.8145 75.6869 61.1354 76.2218 62.4193 76.2218C63.7031 76.2218 64.0241 77.2917 64.0241 77.8267" stroke="#7DBDAB" stroke-width="0.802415" stroke-linecap="round"/>
<path d="M62.4189 73.8145C62.4189 74.0819 62.7399 74.6169 64.0238 74.6169C65.3076 74.6169 65.6286 75.6868 65.6286 76.2217" stroke="#7DBDAB" stroke-width="0.802415" stroke-linecap="round"/>
</svg>
