<svg width="144" height="133" viewBox="0 0 144 133" fill="none" xmlns="http://www.w3.org/2000/svg">
<ellipse cx="71.8115" cy="66.5" rx="71.8115" ry="66.5" fill="#7DBDAB"/>
<ellipse cx="72.8736" cy="64.375" rx="64.8003" ry="60.976" fill="#2E1129"/>
<path d="M30.3116 95.4232C23.4119 85.7671 33.1864 80.2876 38.9361 78.7549H111.382C124.721 78.7549 121.157 93.6217 109.657 95.4232C83.9753 99.4466 37.2112 105.079 30.3116 95.4232Z" fill="#5F6D05"/>
<path d="M39.7957 80.635C34.396 73.1734 42.0456 68.9393 46.5453 67.7549H103.242C113.682 67.7549 110.892 79.2429 101.892 80.635C81.7934 83.744 45.1954 88.0965 39.7957 80.635Z" fill="#5F6D05"/>
<path d="M96.7003 57.3901C100.3 63.9738 95.2004 67.7098 92.2006 68.7549L54.4027 68.7549C47.443 68.7549 49.3029 58.6184 55.3026 57.3901C68.7019 54.6469 93.1005 50.8064 96.7003 57.3901Z" fill="#5F6D05"/>
<path d="M42.9676 69.7355L34.81 44.3223L45.8154 45.8883L49.712 33.5187L59.891 41.828L66.8063 26.3778L80.307 36.117L93.0166 21.6508L100.702 55.7724L42.9676 69.7355Z" fill="#C7E40C"/>
<ellipse cx="68.4385" cy="48.7549" rx="3.5" ry="4" fill="#7DBDAB"/>
<circle cx="87.9385" cy="43.7549" r="4" fill="#7DBDAB"/>
<circle cx="48.4385" cy="54.2549" r="3.5" fill="#7DBDAB"/>
<path d="M65.7003 58.4344C57.943 57.3304 54.3053 64.4882 53.4561 68.2051L78.3177 63.3361C77.3441 62.1622 73.4575 59.5384 65.7003 58.4344Z" fill="#5F6D05" stroke="#5F6D05"/>
</svg>
